<svg id="e1dlNcFU2B91" xmlns="http://www.w3.org/2000/svg" xmlns:xlink="http://www.w3.org/1999/xlink" viewBox="0 0 1920 1080" shape-rendering="geometricPrecision" text-rendering="geometricPrecision"><path d="M0,459.105594c236.0811,136.506716,654.628522,266.727657,960,0c319.433647-294.933085,768.718546-212.294836,960,0" transform="translate(0 282.809046)" fill="none" stroke="#349ed2" stroke-width="3.84"/><path d="M0,459.105594c236.0811,136.506716,654.628522,266.727657,960,0c319.433647-294.933085,768.718546-212.294836,960,0" transform="translate(0 80.74715)" fill="none" stroke="#349ed2" stroke-width="3.84"/><path d="M0,459.105594c236.0811,136.506716,654.628522,266.727657,960,0c319.433647-294.933085,768.718546-212.294836,960,0" transform="translate(0-53.311684)" fill="none" stroke="#349ed2" stroke-width="3.84"/><path d="M0,459.105594c236.0811,136.506716,654.628522,266.727657,960,0c319.433647-294.933085,768.718546-212.294836,960,0" transform="translate(0 10.9631)" fill="none" stroke="#349ed2" stroke-width="3.84"/><path d="M0,459.105594c236.0811,136.506716,654.628522,266.727657,960,0c319.433647-294.933085,768.718546-212.294836,960,0" transform="translate(0 148.750213)" fill="none" stroke="#349ed2" stroke-width="3.84"/><path d="M0,459.105594c236.0811,136.506716,654.628522,266.727657,960,0c319.433647-294.933085,768.718546-212.294836,960,0" transform="translate(0 213.024996)" fill="none" stroke="#349ed2" stroke-width="3.84"/></svg>
